<svg xmlns="http://www.w3.org/2000/svg" width="328.977" height="217.959" viewBox="0 0 328.977 217.959"><path fill="#FFF" d="M32.972 70.54c-.4-2.312-.618-4.683-.618-7.106 0-22.934 18.592-41.524 41.524-41.524 4.138 0 8.13.613 11.903 1.74C98.31 9.172 116.804 0 137.45 0c31.146 0 57.403 20.847 65.63 49.34 6.616-2.802 13.892-4.353 21.528-4.353 30.19 0 54.708 24.226 55.21 54.297 2.34-.404 4.74-.627 7.193-.627 23.175 0 41.966 18.787 41.966 41.964s-18.79 41.966-41.965 41.966h-32.687c-6.212 6.935-15.23 11.3-25.27 11.3-9.424 0-17.947-3.845-24.094-10.048-13.068 14.787-32.163 24.12-53.446 24.12-18.86 0-35.998-7.333-48.75-19.288-10.06 5.79-21.717 9.117-34.158 9.117C30.716 197.787 0 167.07 0 129.177c0-24.84 13.202-46.597 32.972-58.638z"/></svg>